<?xml version="1.0" encoding="UTF-8"?>
<svg width="500px" height="500px" viewBox="0 0 500 500" version="1.1" xmlns="http://www.w3.org/2000/svg" xmlns:xlink="http://www.w3.org/1999/xlink">
    <title>8385840_coin_crypto_growth_interest_invest_income_passive</title>
    <g id="8385840_coin_crypto_growth_interest_invest_income_passive" stroke="none" stroke-width="1" fill="none" fill-rule="evenodd">
        <g fill-rule="nonzero">
            <path d="M273.4375,7.8125 L226.5625,7.8125 C192.046875,7.8125 164.0625,35.796875 164.0625,70.3125 L164.0625,70.3125 L210.9375,70.3125 C245.453125,70.3125 273.4375,42.328125 273.4375,7.8125 L273.4375,7.8125 Z" id="路径" fill="#9CD379"></path>
            <path d="M7.8125,54.6875 L54.6875,54.6875 C89.203125,54.6875 117.1875,82.671875 117.1875,117.1875 L117.1875,117.1875 L70.3125,117.1875 C35.796875,117.1875 7.8125,89.203125 7.8125,54.6875 L7.8125,54.6875 Z" id="路径" fill="#9CD379"></path>
            <path d="M492.1875,46.875 L445.3125,46.875 C410.796875,46.875 382.8125,74.859375 382.8125,109.375 L382.8125,109.375 L429.6875,109.375 C464.203125,109.375 492.1875,81.390625 492.1875,46.875 L492.1875,46.875 Z" id="路径" fill="#9CD379"></path>
            <path d="M250,85.9375 L289.0625,85.9375 C314.953125,85.9375 335.9375,106.921875 335.9375,132.8125 L335.9375,132.8125 L296.875,132.8125 C270.984375,132.8125 250,111.828125 250,85.9375 L250,85.9375 Z" id="路径" fill="#9CD379"></path>
            <path d="M406.25,218.75 L445.3125,218.75 C471.203125,218.75 492.1875,197.765625 492.1875,171.875 L492.1875,171.875 L453.125,171.875 C427.234375,171.875 406.25,192.859375 406.25,218.75 L406.25,218.75 Z" id="路径" fill="#9CD379"></path>
            <circle id="椭圆形" fill="#FFD572" cx="250" cy="328.125" r="164.0625"></circle>
            <path d="M81.9609375,237.84375 C81.9609375,237.84375 50.546875,250.625 32.2421875,232.320313 C13.9375,214.015625 15.671875,171.554688 15.671875,171.554688 C15.671875,171.554688 58.1328125,169.820312 76.4375,188.125 C94.7421875,206.429688 81.9609375,237.84375 81.9609375,237.84375 Z" id="路径" fill="#9CD379"></path>
            <circle id="椭圆形" fill="#FFC574" cx="250" cy="328.125" r="132.8125"></circle>
            <circle id="椭圆形" fill="#ED8383" cx="250" cy="265.625" r="23.4375"></circle>
            <circle id="椭圆形" fill="#ED8383" cx="312.5" cy="328.125" r="23.4375"></circle>
            <circle id="椭圆形" fill="#ED8383" cx="187.5" cy="328.125" r="23.4375"></circle>
            <path d="M250,187.5 C172.460938,187.5 109.375,250.585938 109.375,328.125 C109.375,405.664062 172.460938,468.75 250,468.75 C327.539062,468.75 390.625,405.664062 390.625,328.125 C390.625,250.585938 327.539062,187.5 250,187.5 Z M250,281.25 C241.382812,281.25 234.375,274.242188 234.375,265.625 C234.375,257.007812 241.382812,250 250,250 C258.617188,250 265.625,257.007812 265.625,265.625 C265.625,274.242188 258.617188,281.25 250,281.25 Z M296.875,443.921875 L296.875,425.109375 L318.023438,403.960938 C319.492188,402.5 320.3125,400.515625 320.3125,398.4375 L320.3125,358.265625 C333.757812,354.773438 343.75,342.648438 343.75,328.125 C343.75,310.890625 329.734375,296.875 312.5,296.875 C295.265625,296.875 281.25,310.890625 281.25,328.125 C281.25,342.648438 291.242188,354.773438 304.6875,358.265625 L304.6875,395.203125 L283.539062,416.351562 C282.070312,417.8125 281.25,419.796875 281.25,421.875 L281.25,449.007812 C273.679688,450.96875 265.859375,452.226562 257.8125,452.726562 L257.8125,295.765625 C271.257812,292.273438 281.25,280.148437 281.25,265.625 C281.25,248.390625 267.234375,234.375 250,234.375 C232.765625,234.375 218.75,248.390625 218.75,265.625 C218.75,280.148438 228.742188,292.273438 242.1875,295.765625 L242.1875,452.726562 C234.140625,452.226562 226.320312,450.96875 218.75,449.007812 L218.75,421.875 C218.75,419.796875 217.929688,417.8125 216.460938,416.351562 L195.3125,395.203125 L195.3125,358.265625 C208.757812,354.773438 218.75,342.648438 218.75,328.125 C218.75,310.890625 204.734375,296.875 187.5,296.875 C170.265625,296.875 156.25,310.890625 156.25,328.125 C156.25,342.648438 166.242188,354.773438 179.6875,358.265625 L179.6875,398.4375 C179.6875,400.515625 180.507812,402.5 181.976562,403.960938 L203.125,425.109375 L203.125,443.921875 C157.375,425.335938 125,380.46875 125,328.125 C125,259.203125 181.078125,203.125 250,203.125 C318.921875,203.125 375,259.203125 375,328.125 C375,380.46875 342.625,425.335938 296.875,443.921875 Z M312.5,343.75 C303.882812,343.75 296.875,336.742188 296.875,328.125 C296.875,319.507812 303.882812,312.5 312.5,312.5 C321.117188,312.5 328.125,319.507812 328.125,328.125 C328.125,336.742188 321.117188,343.75 312.5,343.75 Z M187.5,343.75 C178.882812,343.75 171.875,336.742188 171.875,328.125 C171.875,319.507812 178.882812,312.5 187.5,312.5 C196.117188,312.5 203.125,319.507812 203.125,328.125 C203.125,336.742188 196.117188,343.75 187.5,343.75 Z" id="形状" fill="#3B3344"></path>
            <path d="M492.1875,164.0625 L453.125,164.0625 C424.125,164.0625 400.382812,186.78125 398.609375,215.34375 L388.0625,225.890625 C384.023437,220.445313 379.640625,215.273438 375,210.34375 L375,128.234375 L386.046875,117.1875 L429.6875,117.1875 C468.460938,117.1875 500,85.6484375 500,46.875 C500,42.5546875 496.507812,39.0625 492.1875,39.0625 L445.3125,39.0625 C407.6875,39.0625 376.96875,68.78125 375.171875,105.96875 L361.664062,119.476562 C360.195312,120.9375 359.375,122.921875 359.375,125 L359.375,145.203125 L343.578125,129.40625 C341.804688,100.84375 318.0625,78.125 289.0625,78.125 L250,78.125 C245.679688,78.125 242.1875,81.6171875 242.1875,85.9375 C242.1875,116.085938 266.726562,140.625 296.875,140.625 L332.703125,140.625 L359.375,167.296875 L359.375,195.640625 C329.640625,171.046875 291.515625,156.25 250,156.25 C215.429688,156.25 183.234375,166.546875 156.25,184.179688 L156.25,89.171875 L167.296875,78.125 L210.9375,78.125 C249.710938,78.125 281.25,46.5859375 281.25,7.8125 C281.25,3.4921875 277.757812,0 273.4375,0 L226.5625,0 C188.9375,0 158.21875,29.71875 156.421875,66.90625 L142.914062,80.4140625 C141.445312,81.875 140.625,83.859375 140.625,85.9375 L140.625,129.578125 L124.828125,113.78125 C123.03125,76.59375 92.3125,46.875 54.6875,46.875 L7.8125,46.875 C3.4921875,46.875 0,50.3671875 0,54.6875 C0,93.4609375 31.5390625,125 70.3125,125 L113.953125,125 L140.625,151.671875 L140.625,195.640625 C124.09375,209.3125 110.179688,226.023438 99.6875,244.890625 L90.8203125,236.023438 C93.9921875,225.5 99.2421875,199.882812 81.9609375,182.601562 C61.4765625,162.125 17.28125,163.65625 15.3515625,163.75 C11.2890625,163.914062 8.03125,167.171875 7.8671875,171.234375 C7.7890625,173.109375 6.2265625,217.359375 26.71875,237.84375 C36.1640625,247.289062 48.1171875,250.007812 58.734375,250.007812 C67.1875,250.007812 74.765625,248.289062 79.5859375,246.875 L92.390625,259.679688 C83.234375,280.664062 78.125,303.804688 78.125,328.125 C78.125,422.898438 155.226562,500 250,500 C344.773438,500 421.875,422.898438 421.875,328.125 C421.875,295.554688 412.765625,265.070312 396.960938,239.085938 L409.484375,226.5625 L445.3125,226.5625 C475.460938,226.5625 500,202.023438 500,171.875 C500,167.554688 496.507812,164.0625 492.1875,164.0625 Z M445.3125,54.6875 L483.820312,54.6875 C480.023438,81.15625 457.195312,101.5625 429.6875,101.5625 L391.179688,101.5625 C394.984375,75.09375 417.804688,54.6875 445.3125,54.6875 Z M296.875,125 C278.007812,125 262.226562,111.554688 258.601562,93.75 L289.0625,93.75 C307.929688,93.75 323.710938,107.195312 327.335938,125 L296.875,125 Z M226.5625,15.625 L265.070312,15.625 C261.265625,42.09375 238.445312,62.5 210.9375,62.5 L172.429688,62.5 C176.234375,36.03125 199.054688,15.625 226.5625,15.625 Z M70.3125,109.375 C42.8046875,109.375 19.984375,88.96875 16.1796875,62.5 L54.6875,62.5 C82.1953125,62.5 105.015625,82.90625 108.820312,109.375 L70.3125,109.375 Z M37.765625,226.796875 C27.1015625,216.132812 24.0234375,193.242187 23.5078125,179.390625 C37.359375,179.90625 60.2421875,182.984375 70.9140625,193.648438 C79.1015625,201.835937 79.1953125,213.96875 77.765625,222.96875 L52.3984375,197.601562 L41.3515625,208.648438 L66.4375,233.734375 C57.5,235.054687 45.7578125,234.789062 37.765625,226.796875 Z M250,484.375 C163.84375,484.375 93.75,414.28125 93.75,328.125 C93.75,241.96875 163.84375,171.875 250,171.875 C336.15625,171.875 406.25,241.96875 406.25,328.125 C406.25,414.28125 336.15625,484.375 250,484.375 Z M445.3125,210.9375 L414.851562,210.9375 C418.484375,193.132812 434.257812,179.6875 453.125,179.6875 L483.585938,179.6875 C479.960938,197.492188 464.179688,210.9375 445.3125,210.9375 Z" id="形状" fill="#3B3344"></path>
        </g>
    </g>
</svg>