<?xml version="1.0" encoding="UTF-8"?>
<svg width="500px" height="500px" viewBox="0 0 500 500" version="1.1" xmlns="http://www.w3.org/2000/svg" xmlns:xlink="http://www.w3.org/1999/xlink">
    <title>8385819_currency_digital_offering_coin_initial_ico</title>
    <g id="8385819_currency_digital_offering_coin_initial_ico" stroke="none" stroke-width="1" fill="none" fill-rule="evenodd">
        <g transform="translate(0.000000, 13.000000)" fill-rule="nonzero">
            <rect id="矩形" fill="#7BC2CC" x="7.8125" y="381.09375" width="93.75" height="85.9375"></rect>
            <circle id="椭圆形" fill="#FFD572" cx="304.6875" cy="224.84375" r="187.5"></circle>
            <circle id="椭圆形" fill="#FFC574" cx="304.6875" cy="224.84375" r="164.0625"></circle>
            <path d="M492.1875,382.265625 C492.1875,391.171875 487.421875,399.453125 479.609375,403.75 L367.1875,467.03125 L101.5625,467.03125 L101.5625,381.09375 L164.0625,381.09375 L195.3125,349.84375 L300.78125,349.84375 C308.28125,349.84375 315.15625,352.890625 320.078125,357.890625 C325.078125,362.8125 328.125,369.6875 328.125,377.1875 C328.125,392.265625 315.859375,404.53125 300.78125,404.53125 L359.375,404.53125 L456.015625,359.921875 C459.296875,358.4375 462.8125,357.65625 466.328125,357.65625 L467.578125,357.65625 C474.375,357.65625 480.546875,360.390625 485,364.84375 C489.453125,369.296875 492.1875,375.46875 492.1875,382.265625 Z" id="路径" fill="#F4A8B2"></path>
            <path d="M110.851563,8.9765625 C114.53125,21.9609375 124.757812,32.1796875 137.734375,35.859375 C139.289062,36.296875 139.289062,38.375 137.734375,38.8203125 C124.75,42.5 114.53125,52.7265625 110.851563,65.703125 C110.414063,67.2578125 108.335938,67.2578125 107.890625,65.703125 C104.210938,52.71875 93.984375,42.5 81.0078125,38.8203125 C79.453125,38.3828125 79.453125,36.3046875 81.0078125,35.859375 C93.9921875,32.1796875 104.210938,21.953125 107.890625,8.9765625 C108.335938,7.421875 110.414063,7.421875 110.851563,8.9765625 Z" id="路径" fill="#FFD572"></path>
            <circle id="椭圆形" fill="#ED8383" cx="335.9375" cy="107.65625" r="23.4375"></circle>
            <circle id="椭圆形" fill="#ED8383" cx="328.125" cy="185.78125" r="23.4375"></circle>
            <circle id="椭圆形" fill="#ED8383" cx="203.125" cy="248.28125" r="23.4375"></circle>
            <circle id="椭圆形" fill="#ED8383" cx="351.5625" cy="310.78125" r="23.4375"></circle>
            <path d="M467.539062,349.84375 L466.351562,349.84375 C461.679688,349.84375 456.976562,350.875 452.75,352.828125 L451.671875,353.320312 C482.492188,318.265625 500,273.085937 500,224.84375 C500,117.148437 412.382812,29.53125 304.6875,29.53125 C196.992188,29.53125 109.375,117.148437 109.375,224.84375 C109.375,277.734375 131.007812,328.398437 168.9375,365.171875 L160.828125,373.28125 L7.8125,373.28125 C3.5,373.28125 0,376.78125 0,381.09375 L0,467.03125 C0,471.34375 3.5,474.84375 7.8125,474.84375 L367.1875,474.84375 C368.53125,474.84375 369.851562,474.5 371.015625,473.84375 L483.453125,410.601562 C493.65625,404.851562 500,394.007812 500,382.304687 C500,364.40625 485.4375,349.84375 467.539062,349.84375 Z M93.75,459.21875 L15.625,459.21875 L15.625,388.90625 L93.75,388.90625 L93.75,459.21875 Z M358.265625,177.96875 C354.773437,164.53125 342.640625,154.53125 328.125,154.53125 C310.890625,154.53125 296.875,168.546875 296.875,185.78125 C296.875,203.015625 310.890625,217.03125 328.125,217.03125 C342.640625,217.03125 354.773438,207.03125 358.265625,193.59375 L426.453125,193.59375 L387.390625,232.65625 L276.671875,232.65625 L198.546875,154.53125 L218.75,154.53125 C220.820312,154.53125 222.8125,153.710938 224.273438,152.242188 L261.046875,115.46875 L305.796875,115.46875 C309.289062,128.90625 321.421875,138.90625 335.9375,138.90625 C350.453125,138.90625 362.585938,128.90625 366.078125,115.46875 L447.109375,115.46875 C461.25,133.835938 471.914062,154.992188 478.132812,177.96875 L358.265625,177.96875 Z M343.75,185.78125 C343.75,194.398438 336.742188,201.40625 328.125,201.40625 C319.507812,201.40625 312.5,194.398438 312.5,185.78125 C312.5,177.164062 319.507812,170.15625 328.125,170.15625 C336.742188,170.15625 343.75,177.164062 343.75,185.78125 Z M320.3125,107.65625 C320.3125,99.0390625 327.320312,92.03125 335.9375,92.03125 C344.554688,92.03125 351.5625,99.0390625 351.5625,107.65625 C351.5625,116.273438 344.554688,123.28125 335.9375,123.28125 C327.320312,123.28125 320.3125,116.273438 320.3125,107.65625 Z M304.6875,45.15625 C355.21875,45.15625 400.914062,66.15625 433.59375,99.84375 L366.078125,99.84375 C362.585938,86.40625 350.453125,76.40625 335.9375,76.40625 C321.421875,76.40625 309.289063,86.40625 305.796875,99.84375 L257.8125,99.84375 C255.742188,99.84375 253.75,100.664063 252.289062,102.132812 L215.515625,138.90625 L146.929688,138.90625 C177.453125,83.09375 236.71875,45.15625 304.6875,45.15625 Z M139.34375,154.53125 L176.453125,154.53125 L267.914062,245.992188 C269.375,247.460938 271.367188,248.28125 273.4375,248.28125 L390.625,248.28125 C392.695312,248.28125 394.6875,247.460938 396.148438,245.992188 L448.546875,193.59375 L481.601562,193.59375 C483.390625,203.75 484.375,214.179688 484.375,224.84375 C484.375,238.179688 482.84375,251.242188 480.054688,263.90625 L445.3125,263.90625 C443.242188,263.90625 441.25,264.726562 439.789062,266.195312 L403.015625,302.96875 L381.703125,302.96875 C378.210937,289.53125 366.078125,279.53125 351.5625,279.53125 C337.046875,279.53125 324.914062,289.53125 321.421875,302.96875 L143,302.96875 C135.835937,288.148438 130.703125,272.390625 127.804687,256.09375 L172.984375,256.09375 C176.476562,269.53125 188.609375,279.53125 203.125,279.53125 C220.359375,279.53125 234.375,265.515625 234.375,248.28125 C234.375,231.046875 220.359375,217.03125 203.125,217.03125 C188.609375,217.03125 176.476562,227.03125 172.984375,240.46875 L125.742187,240.46875 C125.289062,235.289062 125,230.085938 125,224.84375 C125,199.90625 130.117188,176.140625 139.34375,154.53125 Z M367.1875,310.78125 C367.1875,319.398438 360.179688,326.40625 351.5625,326.40625 C342.945312,326.40625 335.9375,319.398438 335.9375,310.78125 C335.9375,302.164062 342.945312,295.15625 351.5625,295.15625 C360.179688,295.15625 367.1875,302.164062 367.1875,310.78125 Z M187.5,248.28125 C187.5,239.664062 194.507812,232.65625 203.125,232.65625 C211.742188,232.65625 218.75,239.664062 218.75,248.28125 C218.75,256.898438 211.742188,263.90625 203.125,263.90625 C194.507812,263.90625 187.5,256.898438 187.5,248.28125 Z M151.53125,318.59375 L321.421875,318.59375 C324.914062,332.03125 337.046875,342.03125 351.5625,342.03125 C366.078125,342.03125 378.210937,332.03125 381.703125,318.59375 L406.25,318.59375 C408.320312,318.59375 410.3125,317.773438 411.773438,316.304688 L448.546875,279.53125 L475.898438,279.53125 C463.195312,319.523438 436.6875,354.1875 399.765625,377.289062 L357.65625,396.71875 L329.984375,396.71875 C333.734375,391.125 335.9375,384.414062 335.9375,377.1875 C335.9375,357.804688 320.164062,342.03125 300.78125,342.03125 L195.3125,342.03125 C193.242188,342.03125 191.25,342.851562 189.789062,344.320312 L179.984375,354.125 C168.945312,343.445312 159.421875,331.492188 151.53125,318.59375 Z M475.789063,396.976562 L365.140625,459.21875 L109.375,459.21875 L109.375,388.90625 L164.0625,388.90625 C166.132812,388.90625 168.125,388.085938 169.585938,386.617188 L198.546875,357.65625 L300.78125,357.65625 C311.546875,357.65625 320.3125,366.421875 320.3125,377.1875 C320.3125,387.953125 311.546875,396.71875 300.78125,396.71875 L234.375,396.71875 L234.375,412.34375 L300.78125,412.34375 L359.375,412.34375 C360.507812,412.34375 361.625,412.101562 362.648438,411.625 L459.304687,367.015625 C461.492187,366 463.929688,365.46875 466.351562,365.46875 L467.539062,365.46875 C476.820312,365.46875 484.375,373.023438 484.375,382.304688 C484.375,388.375 481.085938,394 475.789063,396.976562 Z" id="形状" fill="#3B3344"></path>
            <path d="M78.875,46.3359375 C89.2109375,49.265625 97.4453125,57.5078125 100.375,67.84375 C101.546875,71.9375 105.15625,74.6875 109.375,74.6875 C113.59375,74.6875 117.203125,71.9375 118.367188,67.84375 C121.296875,57.5078125 129.539062,49.2734375 139.875,46.34375 C143.96875,45.171875 146.71875,41.5625 146.71875,37.34375 C146.71875,33.125 143.96875,29.515625 139.875,28.3515625 C129.539062,25.421875 121.304688,17.1796875 118.375,6.8515625 C118.375,6.8515625 118.375,6.8515625 118.375,6.84375 C117.203125,2.75 113.59375,6.9388939e-15 109.375,6.9388939e-15 C105.15625,6.9388939e-15 101.546875,2.75 100.382812,6.84375 C97.453125,17.1796875 89.2109375,25.4140625 78.875,28.34375 C74.78125,29.515625 72.03125,33.125 72.03125,37.34375 C72.03125,41.5625 74.78125,45.171875 78.875,46.3359375 Z M109.375,24.171875 C112.84375,29.3828125 117.335937,33.875 122.546875,37.34375 C117.335937,40.8125 112.84375,45.3046875 109.375,50.515625 C105.90625,45.3046875 101.414062,40.8125 96.203125,37.34375 C101.414062,33.875 105.90625,29.3828125 109.375,24.171875 Z" id="形状" fill="#3B3344"></path>
        </g>
    </g>
</svg>