<?xml version="1.0" encoding="UTF-8"?>
<svg width="500px" height="500px" viewBox="0 0 500 500" version="1.1" xmlns="http://www.w3.org/2000/svg" xmlns:xlink="http://www.w3.org/1999/xlink">
    <title>8385833_chip_token_money_budget_cryptocurrency_digital_coins</title>
    <g id="8385833_chip_token_money_budget_cryptocurrency_digital_coins" stroke="none" stroke-width="1" fill="none" fill-rule="evenodd">
        <g fill-rule="nonzero">
            <path d="M460.9375,125 L46.875,125 C33.9296875,125 23.4375,114.507812 23.4375,101.5625 L23.4375,31.25 C23.4375,18.3046875 33.9296875,7.8125 46.875,7.8125 L460.9375,7.8125 C473.882812,7.8125 484.375,18.3046875 484.375,31.25 L484.375,101.5625 C484.375,114.507812 473.882812,125 460.9375,125 Z" id="路径" fill="#F7CD59"></path>
            <path d="M445.3125,242.1875 L31.25,242.1875 C18.3046875,242.1875 7.8125,231.695312 7.8125,218.75 L7.8125,148.4375 C7.8125,135.492188 18.3046875,125 31.25,125 L445.3125,125 C458.257812,125 468.75,135.492188 468.75,148.4375 L468.75,218.75 C468.75,231.695312 458.257812,242.1875 445.3125,242.1875 Z" id="路径" fill="#F7CD59"></path>
            <path d="M460.9375,359.375 L46.875,359.375 C33.9296875,359.375 23.4375,348.882812 23.4375,335.9375 L23.4375,265.625 C23.4375,252.679688 33.9296875,242.1875 46.875,242.1875 L460.9375,242.1875 C473.882812,242.1875 484.375,252.679688 484.375,265.625 L484.375,335.9375 C484.375,348.882812 473.882812,359.375 460.9375,359.375 Z" id="路径" fill="#F7CD59"></path>
            <path d="M445.3125,476.5625 L31.25,476.5625 C18.3046875,476.5625 7.8125,466.070312 7.8125,453.125 L7.8125,382.8125 C7.8125,369.867188 18.3046875,359.375 31.25,359.375 L445.3125,359.375 C458.257812,359.375 468.75,369.867188 468.75,382.8125 L468.75,453.125 C468.75,466.070312 458.257812,476.5625 445.3125,476.5625 Z" id="路径" fill="#F7CD59"></path>
            <circle id="椭圆形" fill="#FFD572" cx="296.875" cy="296.875" r="195.3125"></circle>
            <circle id="椭圆形" fill="#FFC574" cx="296.875" cy="296.875" r="164.0625"></circle>
            <circle id="椭圆形" fill="#ED8383" cx="296.875" cy="257.8125" r="23.4375"></circle>
            <circle id="椭圆形" fill="#ED8383" cx="375" cy="304.6875" r="23.4375"></circle>
            <circle id="椭圆形" fill="#ED8383" cx="218.75" cy="304.6875" r="23.4375"></circle>
            <path d="M500,296.875 C500,262.742188 491.5,230.570312 476.5625,202.304688 L476.5625,148.4375 C476.5625,141.960938 474.578125,135.9375 471.1875,130.945312 C483.375,126.671875 492.1875,115.1875 492.1875,101.5625 L492.1875,31.25 C492.1875,14.015625 478.171875,0 460.9375,0 L46.875,0 C29.640625,0 15.625,14.015625 15.625,31.25 L15.625,101.5625 C15.625,108.039062 17.609375,114.0625 20.9921875,119.054688 C8.8125,123.328125 0,134.8125 0,148.4375 L0,218.75 C0,232.375 8.8125,243.859375 20.9921875,248.132812 C17.609375,253.125 15.625,259.148438 15.625,265.625 L15.625,335.9375 C15.625,342.414062 17.609375,348.4375 20.9921875,353.429688 C8.8125,357.703125 0,369.1875 0,382.8125 L0,453.125 C0,470.359375 14.015625,484.375 31.25,484.375 L218.804688,484.375 C242.851562,494.429688 269.226562,500 296.875,500 C324.523438,500 350.898438,494.429688 374.945312,484.375 L445.3125,484.375 C462.546875,484.375 476.5625,470.359375 476.5625,453.125 L476.5625,391.445313 C491.5,363.179688 500,331.007812 500,296.875 Z M429.6875,143.382812 L429.6875,132.8125 L445.3125,132.8125 C453.929688,132.8125 460.9375,139.820312 460.9375,148.4375 L460.9375,177.304688 C451.828125,164.84375 441.335938,153.46875 429.6875,143.382812 Z M156.25,443.242188 C166.195312,452.804688 177.101562,461.359375 188.820312,468.75 L156.25,468.75 L156.25,443.242188 Z M140.625,468.75 L101.5625,468.75 L101.5625,367.1875 L106.3125,367.1875 C114.367188,388.953125 126.054688,408.96875 140.625,426.507812 L140.625,468.75 Z M31.25,335.9375 L31.25,265.625 C31.25,257.007812 38.2578125,250 46.875,250 L62.5,250 L62.5,351.5625 L46.875,351.5625 C38.2578125,351.5625 31.25,344.554688 31.25,335.9375 Z M46.875,132.8125 L85.9375,132.8125 L85.9375,234.375 L46.875,234.375 L46.875,132.8125 Z M125,117.1875 L125,15.625 L164.0625,15.625 L164.0625,117.1875 L125,117.1875 Z M109.375,117.1875 L70.3125,117.1875 L70.3125,15.625 L109.375,15.625 L109.375,117.1875 Z M85.9375,367.1875 L85.9375,468.75 L46.875,468.75 L46.875,367.1875 L85.9375,367.1875 Z M78.125,351.5625 L78.125,250 L99.2734375,250 C95.6953125,265.0625 93.75,280.742188 93.75,296.875 C93.75,315.820312 96.4140625,334.148438 101.289062,351.5625 L78.125,351.5625 Z M103.632812,234.375 L101.5625,234.375 L101.5625,132.8125 L140.625,132.8125 L140.625,167.242188 C124.328125,186.851562 111.671875,209.585938 103.632812,234.375 Z M156.25,132.8125 L177.304688,132.8125 C169.882812,138.234375 162.859375,144.15625 156.25,150.507812 L156.25,132.8125 Z M202.304688,117.1875 L179.6875,117.1875 L179.6875,15.625 L218.75,15.625 L218.75,109.398438 C213.132812,111.742188 207.65625,114.359375 202.304688,117.1875 Z M234.375,15.625 L273.4375,15.625 L273.4375,95.140625 C259.976562,96.6953125 246.914062,99.5625 234.375,103.625 L234.375,15.625 Z M289.0625,15.625 L328.125,15.625 L328.125,96.15625 C317.9375,94.578125 307.5,93.75 296.875,93.75 C294.257812,93.75 291.65625,93.8515625 289.0625,93.9453125 L289.0625,15.625 Z M343.75,15.625 L382.8125,15.625 L382.8125,112.882812 C370.421875,107.070312 357.34375,102.492188 343.75,99.2734375 L343.75,15.625 Z M437.5,117.1875 L398.4375,117.1875 L398.4375,15.625 L437.5,15.625 L437.5,117.1875 Z M476.5625,31.25 L476.5625,101.5625 C476.5625,110.179688 469.554688,117.1875 460.9375,117.1875 L453.125,117.1875 L453.125,15.625 L460.9375,15.625 C469.554688,15.625 476.5625,22.6328125 476.5625,31.25 Z M31.25,31.25 C31.25,22.6328125 38.2578125,15.625 46.875,15.625 L54.6875,15.625 L54.6875,117.1875 L46.875,117.1875 C38.2578125,117.1875 31.25,110.179688 31.25,101.5625 L31.25,31.25 Z M15.625,218.75 L15.625,148.4375 C15.625,139.820312 22.6328125,132.8125 31.25,132.8125 L31.25,234.375 C22.6328125,234.375 15.625,227.367188 15.625,218.75 Z M15.625,453.125 L15.625,382.8125 C15.625,374.195312 22.6328125,367.1875 31.25,367.1875 L31.25,468.75 C22.6328125,468.75 15.625,461.742188 15.625,453.125 Z M109.375,296.875 C109.375,193.492188 193.492188,109.375 296.875,109.375 C400.257813,109.375 484.375,193.492188 484.375,296.875 C484.375,400.257813 400.257812,484.375 296.875,484.375 C193.492188,484.375 109.375,400.257812 109.375,296.875 Z M414.0625,462.632812 L414.0625,468.75 L404.929688,468.75 C408.03125,466.789062 411.078125,464.75 414.0625,462.632812 Z M460.9375,453.125 C460.9375,461.742188 453.929688,468.75 445.3125,468.75 L429.6875,468.75 L429.6875,450.367188 C441.335938,440.273437 451.828125,428.90625 460.9375,416.4375 L460.9375,453.125 Z" id="形状" fill="#3B3344"></path>
            <path d="M296.875,125 C202.101562,125 125,202.101562 125,296.875 C125,391.648438 202.101562,468.75 296.875,468.75 C391.648438,468.75 468.75,391.648438 468.75,296.875 C468.75,202.101562 391.648438,125 296.875,125 Z M296.875,273.4375 C288.257812,273.4375 281.25,266.429688 281.25,257.8125 C281.25,249.195312 288.257812,242.1875 296.875,242.1875 C305.492188,242.1875 312.5,249.195312 312.5,257.8125 C312.5,266.429688 305.492188,273.4375 296.875,273.4375 Z M359.375,439.984375 L359.375,401.671875 L380.523438,380.523438 C381.992188,379.0625 382.8125,377.070313 382.8125,375 L382.8125,334.828125 C396.257812,331.335938 406.25,319.203125 406.25,304.6875 C406.25,287.453125 392.234375,273.4375 375,273.4375 C357.765625,273.4375 343.75,287.453125 343.75,304.6875 C343.75,319.203125 353.742188,331.335938 367.1875,334.828125 L367.1875,371.765625 L346.039062,392.914063 C344.570312,394.375 343.75,396.367188 343.75,398.4375 L343.75,445.921875 C331.335938,449.835938 318.210938,452.054688 304.6875,452.734375 L304.6875,287.953125 C318.132812,284.460938 328.125,272.328125 328.125,257.8125 C328.125,240.578125 314.109375,226.5625 296.875,226.5625 C279.640625,226.5625 265.625,240.578125 265.625,257.8125 C265.625,272.328125 275.617188,284.460938 289.0625,287.953125 L289.0625,452.726563 C275.539062,452.054688 262.414062,449.828125 250,445.914063 L250,398.4375 C250,396.367188 249.179688,394.375 247.710938,392.914063 L226.5625,371.765625 L226.5625,334.828125 C240.007812,331.335938 250,319.203125 250,304.6875 C250,287.453125 235.984375,273.4375 218.75,273.4375 C201.515625,273.4375 187.5,287.453125 187.5,304.6875 C187.5,319.203125 197.492188,331.335938 210.9375,334.828125 L210.9375,375 C210.9375,377.070313 211.757812,379.0625 213.226562,380.523438 L234.375,401.671875 L234.375,439.984375 C179.257812,415.820313 140.625,360.804688 140.625,296.875 C140.625,210.71875 210.71875,140.625 296.875,140.625 C383.03125,140.625 453.125,210.71875 453.125,296.875 C453.125,360.804688 414.492188,415.820313 359.375,439.984375 Z M375,320.3125 C366.382812,320.3125 359.375,313.304688 359.375,304.6875 C359.375,296.070312 366.382812,289.0625 375,289.0625 C383.617188,289.0625 390.625,296.070312 390.625,304.6875 C390.625,313.304688 383.617188,320.3125 375,320.3125 Z M218.75,320.3125 C210.132812,320.3125 203.125,313.304688 203.125,304.6875 C203.125,296.070312 210.132812,289.0625 218.75,289.0625 C227.367188,289.0625 234.375,296.070312 234.375,304.6875 C234.375,313.304688 227.367188,320.3125 218.75,320.3125 Z" id="形状" fill="#3B3344"></path>
        </g>
    </g>
</svg>