<?xml version="1.0" encoding="UTF-8"?>
<svg width="500px" height="500px" viewBox="0 0 500 500" version="1.1" xmlns="http://www.w3.org/2000/svg" xmlns:xlink="http://www.w3.org/1999/xlink">
    <title>8385836_money_send_transfer_crypto_bank_withdraw</title>
    <g id="8385836_money_send_transfer_crypto_bank_withdraw" stroke="none" stroke-width="1" fill="none" fill-rule="evenodd">
        <g fill-rule="nonzero">
            <circle id="椭圆形" fill="#FFD572" cx="117.1875" cy="117.1875" r="109.375"></circle>
            <circle id="椭圆形" fill="#ED8383" cx="117.1875" cy="78.125" r="15.625"></circle>
            <polygon id="路径" fill="#E2E6E8" points="203.125 257.8125 343.75 203.125 484.375 257.8125 484.375 289.0625 203.125 289.0625"></polygon>
            <circle id="椭圆形" fill="#ED8383" cx="171.875" cy="101.5625" r="15.625"></circle>
            <polygon id="路径" fill="#C9D3D6" points="273.4375 445.3125 226.5625 445.3125 226.5625 421.875 234.375 414.0625 234.375 320.3125 226.5625 312.5 226.5625 289.0625 273.4375 289.0625 273.4375 312.5 265.625 320.3125 265.625 414.0625 273.4375 421.875"></polygon>
            <circle id="椭圆形" fill="#ED8383" cx="62.5" cy="101.5625" r="15.625"></circle>
            <polygon id="路径" fill="#C9D3D6" points="367.1875 445.3125 320.3125 445.3125 320.3125 421.875 328.125 414.0625 328.125 320.3125 320.3125 312.5 320.3125 289.0625 367.1875 289.0625 367.1875 312.5 359.375 320.3125 359.375 414.0625 367.1875 421.875"></polygon>
            <polygon id="路径" fill="#C9D3D6" points="460.9375 445.3125 414.0625 445.3125 414.0625 421.875 421.875 414.0625 421.875 320.3125 414.0625 312.5 414.0625 289.0625 460.9375 289.0625 460.9375 312.5 453.125 320.3125 453.125 414.0625 460.9375 421.875"></polygon>
            <polygon id="路径" fill="#E2E6E8" points="484.375 460.9375 484.375 445.3125 203.125 445.3125 203.125 460.9375 195.3125 468.75 195.3125 492.1875 492.1875 492.1875 492.1875 468.75"></polygon>
            <path d="M93.75,257.8125 L140.625,257.8125 L140.625,328.125 C140.625,336.757812 147.617188,343.75 156.25,343.75 L171.875,343.75 L171.875,328.125 L218.75,367.1875 L171.875,406.25 L171.875,390.625 L156.25,390.625 C121.734375,390.625 93.75,362.640625 93.75,328.125 L93.75,257.8125 Z" id="路径" fill="#91CBD7"></path>
            <circle id="椭圆形" fill="#7BC2CC" cx="343.75" cy="250" r="15.625"></circle>
            <path d="M234.375,117.1875 C234.375,52.5703125 181.804688,0 117.1875,0 C52.5703125,0 0,52.5703125 0,117.1875 C0,181.804688 52.5703125,234.375 117.1875,234.375 C181.804688,234.375 234.375,181.804688 234.375,117.1875 Z M109.375,78.125 C109.375,73.8125 112.875,70.3125 117.1875,70.3125 C121.5,70.3125 125,73.8125 125,78.125 C125,82.4375 121.5,85.9375 117.1875,85.9375 C112.875,85.9375 109.375,82.4375 109.375,78.125 Z M15.625,117.1875 C15.625,61.1875 61.1875,15.625 117.1875,15.625 C173.1875,15.625 218.75,61.1875 218.75,117.1875 C218.75,159.351562 192.914063,195.578125 156.25,210.914062 L156.25,167.296875 L177.398438,146.148438 C178.867188,144.6875 179.6875,142.703125 179.6875,140.625 L179.6875,123.5625 C188.757812,120.328125 195.3125,111.734375 195.3125,101.5625 C195.3125,88.640625 184.796875,78.125 171.875,78.125 C158.953125,78.125 148.4375,88.640625 148.4375,101.5625 C148.4375,111.734375 154.992188,120.328125 164.0625,123.5625 L164.0625,137.390625 L142.914062,158.539062 C141.445312,160 140.625,161.984375 140.625,164.0625 L140.625,215.914062 C135.546875,217.117188 130.335938,217.945312 125,218.359375 L125,100.125 C134.070312,96.890625 140.625,88.296875 140.625,78.125 C140.625,65.203125 130.109375,54.6875 117.1875,54.6875 C104.265625,54.6875 93.75,65.203125 93.75,78.125 C93.75,88.296875 100.304688,96.890625 109.375,100.125 L109.375,218.359375 C104.039062,217.953125 98.828125,217.125 93.75,215.914062 L93.75,164.0625 C93.75,161.984375 92.9296875,160 91.4609375,158.539062 L70.3125,137.390625 L70.3125,123.5625 C79.3828125,120.328125 85.9375,111.734375 85.9375,101.5625 C85.9375,88.640625 75.421875,78.125 62.5,78.125 C49.578125,78.125 39.0625,88.640625 39.0625,101.5625 C39.0625,111.734375 45.6171875,120.328125 54.6875,123.5625 L54.6875,140.625 C54.6875,142.703125 55.5078125,144.6875 56.9765625,146.148438 L78.125,167.296875 L78.125,210.914062 C41.4609375,195.578125 15.625,159.351562 15.625,117.1875 Z M164.0625,101.5625 C164.0625,97.25 167.5625,93.75 171.875,93.75 C176.1875,93.75 179.6875,97.25 179.6875,101.5625 C179.6875,105.875 176.1875,109.375 171.875,109.375 C167.5625,109.375 164.0625,105.875 164.0625,101.5625 Z M54.6875,101.5625 C54.6875,97.25 58.1875,93.75 62.5,93.75 C66.8125,93.75 70.3125,97.25 70.3125,101.5625 C70.3125,105.875 66.8125,109.375 62.5,109.375 C58.1875,109.375 54.6875,105.875 54.6875,101.5625 Z" id="形状" fill="#3B3344"></path>
            <path d="M497.710938,463.226562 L492.1875,457.703125 L492.1875,445.3125 C492.1875,440.992188 488.695312,437.5 484.375,437.5 L468.75,437.5 L468.75,421.875 C468.75,419.796875 467.929688,417.8125 466.460938,416.351562 L460.9375,410.828125 L460.9375,323.546875 L466.460938,318.023438 C467.929688,316.5625 468.75,314.578125 468.75,312.5 L468.75,296.875 L484.375,296.875 C488.695312,296.875 492.1875,293.382812 492.1875,289.0625 L492.1875,257.8125 C492.1875,254.59375 490.210938,251.703125 487.203125,250.53125 L346.578125,195.84375 C344.765625,195.125 342.734375,195.125 340.914062,195.84375 L200.289062,250.53125 C197.289062,251.703125 195.3125,254.59375 195.3125,257.8125 L195.3125,289.0625 C195.3125,293.382812 198.804688,296.875 203.125,296.875 L218.75,296.875 L218.75,312.5 C218.75,314.578125 219.570312,316.5625 221.039062,318.023438 L226.5625,323.546875 L226.5625,367.1875 L226.5625,410.828125 L221.039062,416.351562 C219.570312,417.8125 218.75,419.796875 218.75,421.875 L218.75,437.5 L203.125,437.5 C198.804688,437.5 195.3125,440.992188 195.3125,445.3125 L195.3125,457.703125 L189.789062,463.226562 C188.320312,464.6875 187.5,466.671875 187.5,468.75 L187.5,492.1875 C187.5,496.507812 190.992188,500 195.3125,500 L492.1875,500 C496.507812,500 500,496.507812 500,492.1875 L500,468.75 C500,466.671875 499.179688,464.6875 497.710938,463.226562 Z M453.125,309.265625 L447.601562,314.789062 C446.132812,316.25 445.3125,318.234375 445.3125,320.3125 L445.3125,414.0625 C445.3125,416.140625 446.132812,418.125 447.601562,419.585938 L453.125,425.109375 L453.125,437.5 L421.875,437.5 L421.875,425.109375 L427.398438,419.585938 C428.867188,418.125 429.6875,416.140625 429.6875,414.0625 L429.6875,320.3125 C429.6875,318.234375 428.867188,316.25 427.398438,314.789062 L421.875,309.265625 L421.875,296.875 L453.125,296.875 L453.125,309.265625 Z M375,437.5 L375,421.875 C375,419.796875 374.179688,417.8125 372.710938,416.351562 L367.1875,410.828125 L367.1875,323.546875 L372.710938,318.023438 C374.179688,316.5625 375,314.578125 375,312.5 L375,296.875 L406.25,296.875 L406.25,312.5 C406.25,314.578125 407.070312,316.5625 408.539062,318.023438 L414.0625,323.546875 L414.0625,410.828125 L408.539062,416.351562 C407.070312,417.8125 406.25,419.796875 406.25,421.875 L406.25,437.5 L375,437.5 Z M281.25,437.5 L281.25,421.875 C281.25,419.796875 280.429688,417.8125 278.960938,416.351562 L273.4375,410.828125 L273.4375,323.546875 L278.960938,318.023438 C280.429688,316.5625 281.25,314.578125 281.25,312.5 L281.25,296.875 L312.5,296.875 L312.5,312.5 C312.5,314.578125 313.320312,316.5625 314.789062,318.023438 L320.3125,323.546875 L320.3125,410.828125 L314.789062,416.351562 C313.320312,417.8125 312.5,419.796875 312.5,421.875 L312.5,437.5 L281.25,437.5 Z M328.125,425.109375 L333.648438,419.585938 C335.117188,418.125 335.9375,416.140625 335.9375,414.0625 L335.9375,320.3125 C335.9375,318.234375 335.117188,316.25 333.648438,314.789062 L328.125,309.265625 L328.125,296.875 L359.375,296.875 L359.375,309.265625 L353.851562,314.789062 C352.382812,316.25 351.5625,318.234375 351.5625,320.3125 L351.5625,414.0625 C351.5625,416.140625 352.382812,418.125 353.851562,419.585938 L359.375,425.109375 L359.375,437.5 L328.125,437.5 L328.125,425.109375 Z M210.9375,263.15625 L343.75,211.515625 L476.5625,263.15625 L476.5625,281.25 L210.9375,281.25 L210.9375,263.15625 Z M234.375,425.109375 L239.898438,419.585938 C241.367188,418.125 242.1875,416.140625 242.1875,414.0625 L242.1875,320.3125 C242.1875,318.234375 241.367188,316.25 239.898438,314.789062 L234.375,309.265625 L234.375,296.875 L265.625,296.875 L265.625,309.265625 L260.101562,314.789062 C258.632812,316.25 257.8125,318.234375 257.8125,320.3125 L257.8125,414.0625 C257.8125,416.140625 258.632812,418.125 260.101562,419.585938 L265.625,425.109375 L265.625,437.5 L234.375,437.5 L234.375,425.109375 Z M484.375,484.375 L203.125,484.375 L203.125,471.984375 L208.648438,466.460937 C210.117188,465 210.9375,463.015625 210.9375,460.9375 L210.9375,453.125 L476.5625,453.125 L476.5625,460.9375 C476.5625,463.015625 477.382812,465 478.851562,466.460937 L484.375,471.984375 L484.375,484.375 Z" id="形状" fill="#3B3344"></path>
            <path d="M176.882812,322.117188 C174.546875,320.1875 171.304688,319.765625 168.570312,321.046875 C165.820312,322.335938 164.0625,325.09375 164.0625,328.125 L164.0625,335.9375 L156.25,335.9375 C151.9375,335.9375 148.4375,332.4375 148.4375,328.125 L148.4375,257.8125 C148.4375,253.492188 144.945312,250 140.625,250 L93.75,250 C89.4296875,250 85.9375,253.492188 85.9375,257.8125 L85.9375,328.125 C85.9375,366.898438 117.476562,398.4375 156.25,398.4375 L164.0625,398.4375 L164.0625,406.25 C164.0625,409.28125 165.820312,412.039062 168.5625,413.320312 C169.617188,413.820312 170.742188,414.0625 171.875,414.0625 C173.664062,414.0625 175.445312,413.445312 176.882812,412.257812 L223.757812,373.195312 C225.53125,371.703125 226.5625,369.507812 226.5625,367.1875 C226.5625,364.867188 225.53125,362.671875 223.757812,361.179688 L176.882812,322.117188 Z M179.625,389.625 C179.132812,385.78125 175.851562,382.8125 171.875,382.8125 L156.25,382.8125 C126.101562,382.8125 101.5625,358.273438 101.5625,328.125 L101.5625,265.625 L132.8125,265.625 L132.8125,328.125 C132.8125,341.046875 143.328125,351.5625 156.25,351.5625 L171.875,351.5625 C175.851562,351.5625 179.132812,348.59375 179.625,344.75 L206.539062,367.1875 L179.625,389.625 Z" id="形状" fill="#3B3344"></path>
            <path d="M343.75,273.4375 C356.671875,273.4375 367.1875,262.921875 367.1875,250 C367.1875,237.078125 356.671875,226.5625 343.75,226.5625 C330.828125,226.5625 320.3125,237.078125 320.3125,250 C320.3125,262.921875 330.828125,273.4375 343.75,273.4375 Z M343.75,242.1875 C348.0625,242.1875 351.5625,245.6875 351.5625,250 C351.5625,254.3125 348.0625,257.8125 343.75,257.8125 C339.4375,257.8125 335.9375,254.3125 335.9375,250 C335.9375,245.6875 339.4375,242.1875 343.75,242.1875 Z" id="形状" fill="#3B3344"></path>
        </g>
    </g>
</svg>