<?xml version="1.0" ?><svg id="LineForOutlineFilled" style="enable-background:new 0 0 64 64;" version="1.1" viewBox="0 0 64 64" xml:space="preserve" xmlns="http://www.w3.org/2000/svg" xmlns:xlink="http://www.w3.org/1999/xlink"><rect height="11" style="fill:#7BC2CC;" width="12" x="1" y="50"/><circle cx="39" cy="30" r="24" style="fill:#FFD572;"/><circle cx="39" cy="30" r="21" style="fill:#FFC574;"/><path d="M63,50.15c0,1.14-0.61,2.2-1.61,2.75L47,61H13V50h8l4-4h13.5c0.96,0,1.84,0.39,2.47,1.03  C41.61,47.66,42,48.54,42,49.5c0,1.93-1.57,3.5-3.5,3.5H46l12.37-5.71C58.79,47.1,59.24,47,59.69,47h0.16  c0.87,0,1.66,0.35,2.23,0.92S63,49.28,63,50.15z" style="fill:#F4A8B2;"/><path d="M14.189,2.369c0.471,1.662,1.78,2.97,3.441,3.441c0.199,0.056,0.199,0.322,0,0.379  c-1.662,0.471-2.97,1.78-3.441,3.441c-0.056,0.199-0.322,0.199-0.379,0c-0.471-1.662-1.78-2.97-3.441-3.441  c-0.199-0.056-0.199-0.322,0-0.379c1.662-0.471,2.97-1.78,3.441-3.441C13.867,2.17,14.133,2.17,14.189,2.369z" style="fill:#FFD572;"/><circle cx="43" cy="15" r="3" style="fill:#ED8383;"/><circle cx="42" cy="25" r="3" style="fill:#ED8383;"/><circle cx="26" cy="33" r="3" style="fill:#ED8383;"/><circle cx="45" cy="41" r="3" style="fill:#ED8383;"/><path d="M59.845,46h-0.152c-0.598,0-1.2,0.132-1.741,0.382l-0.138,0.063C61.759,41.958,64,36.175,64,30  C64,16.215,52.785,5,39,5S14,16.215,14,30c0,6.77,2.769,13.255,7.624,17.962L20.586,49H1c-0.552,0-1,0.448-1,1v11  c0,0.552,0.448,1,1,1h46c0.172,0,0.341-0.044,0.49-0.128l14.392-8.095C63.188,53.041,64,51.653,64,50.155  C64,47.864,62.136,46,59.845,46z M12,60H2v-9h10V60z M45.858,24c-0.447-1.72-2-3-3.858-3c-2.206,0-4,1.794-4,4s1.794,4,4,4  c1.858,0,3.411-1.28,3.858-3h8.728l-5,5H35.414l-10-10H28c0.265,0,0.52-0.105,0.707-0.293L33.414,16h5.728c0.447,1.72,2,3,3.858,3  s3.411-1.28,3.858-3H57.23c1.81,2.351,3.175,5.059,3.971,8H45.858z M44,25c0,1.103-0.897,2-2,2s-2-0.897-2-2s0.897-2,2-2  S44,23.897,44,25z M41,15c0-1.103,0.897-2,2-2s2,0.897,2,2s-0.897,2-2,2S41,16.103,41,15z M39,7c6.468,0,12.317,2.688,16.5,7h-8.642  c-0.447-1.72-2-3-3.858-3s-3.411,1.28-3.858,3H33c-0.265,0-0.52,0.105-0.707,0.293L27.586,19h-8.779C22.714,11.856,30.3,7,39,7z   M17.836,21h4.75l11.707,11.707C34.48,32.895,34.735,33,35,33h15c0.265,0,0.52-0.105,0.707-0.293L57.414,26h4.231  C61.874,27.3,62,28.635,62,30c0,1.707-0.196,3.379-0.553,5H57c-0.265,0-0.52,0.105-0.707,0.293L51.586,40h-2.728  c-0.447-1.72-2-3-3.858-3s-3.411,1.28-3.858,3H18.304c-0.917-1.897-1.574-3.914-1.945-6h5.783c0.447,1.72,2,3,3.858,3  c2.206,0,4-1.794,4-4s-1.794-4-4-4c-1.858,0-3.411,1.28-3.858,3h-6.047C16.037,31.337,16,30.671,16,30  C16,26.808,16.655,23.766,17.836,21z M47,41c0,1.103-0.897,2-2,2s-2-0.897-2-2s0.897-2,2-2S47,39.897,47,41z M24,33  c0-1.103,0.897-2,2-2s2,0.897,2,2s-0.897,2-2,2S24,34.103,24,33z M19.396,42h21.746c0.447,1.72,2,3,3.858,3s3.411-1.28,3.858-3H52  c0.265,0,0.52-0.105,0.707-0.293L57.414,37h3.501c-1.626,5.119-5.019,9.556-9.745,12.513L45.78,52h-3.542  C42.718,51.284,43,50.425,43,49.5c0-2.481-2.019-4.5-4.5-4.5H25c-0.265,0-0.52,0.105-0.707,0.293l-1.255,1.255  C21.625,45.181,20.406,43.651,19.396,42z M60.901,52.033L46.738,60H14v-9h7c0.265,0,0.52-0.105,0.707-0.293L25.414,47H38.5  c1.378,0,2.5,1.122,2.5,2.5S39.878,52,38.5,52H30v2h8.5H46c0.145,0,0.288-0.031,0.419-0.092l12.372-5.71  C59.071,48.068,59.383,48,59.693,48h0.152C61.033,48,62,48.967,62,50.155C62,50.932,61.579,51.652,60.901,52.033z" style="fill:#3B3344;"/><path d="M10.096,7.151c1.323,0.375,2.377,1.43,2.752,2.753C12.998,10.428,13.46,10.78,14,10.78  s1.002-0.352,1.151-0.876c0.375-1.323,1.43-2.377,2.753-2.752C18.428,7.002,18.78,6.54,18.78,6s-0.352-1.002-0.876-1.151  c-1.323-0.375-2.377-1.43-2.752-2.752c0,0,0,0,0-0.001C15.002,1.572,14.54,1.22,14,1.22s-1.002,0.352-1.151,0.876  c-0.375,1.323-1.43,2.377-2.753,2.752C9.572,4.998,9.22,5.46,9.22,6S9.572,7.002,10.096,7.151z M14,4.314  C14.444,4.981,15.019,5.556,15.686,6C15.019,6.444,14.444,7.019,14,7.686C13.556,7.019,12.981,6.444,12.314,6  C12.981,5.556,13.556,4.981,14,4.314z" style="fill:#3B3344;"/></svg>