<?xml version="1.0" encoding="UTF-8"?>
<svg width="500px" height="500px" viewBox="0 0 500 500" version="1.1" xmlns="http://www.w3.org/2000/svg" xmlns:xlink="http://www.w3.org/1999/xlink">
    <title>8385828_connection_cube_structure_network_technology_blockchain</title>
    <g id="8385828_connection_cube_structure_network_technology_blockchain" stroke="none" stroke-width="1" fill="none" fill-rule="evenodd">
        <g transform="translate(-0.000000, 0.000000)" fill-rule="nonzero">
            <polygon id="路径" fill="#91CBD7" points="7.81243897 62.5034179 101.561707 7.81634518 195.310974 62.5034179 101.561707 117.190491"></polygon>
            <polygon id="路径" fill="#7BC2CC" points="101.561707 117.190491 101.561707 195.31488 7.81243897 140.627808 7.81243897 62.5034179"></polygon>
            <polygon id="路径" fill="#4E9BB9" points="101.561707 117.190491 101.561707 195.31488 195.310974 140.627808 195.310974 62.5034179"></polygon>
            <polygon id="路径" fill="#91CBD7" points="304.68512 62.5034179 398.434387 7.81634518 492.183655 62.5034179 398.434387 117.190491"></polygon>
            <polygon id="路径" fill="#7BC2CC" points="398.434387 117.190491 398.434387 195.31488 304.68512 140.627808 304.68512 62.5034179"></polygon>
            <polygon id="路径" fill="#4E9BB9" points="398.434387 117.190491 398.434387 195.31488 492.183655 140.627808 492.183655 62.5034179"></polygon>
            <polygon id="路径" fill="#91CBD7" points="156.248779 210.939758 249.998047 156.252686 343.747314 210.939758 249.998047 265.626831"></polygon>
            <polygon id="路径" fill="#7BC2CC" points="249.998047 265.626831 249.998047 343.751221 156.248779 289.064148 156.248779 210.939758"></polygon>
            <polygon id="路径" fill="#4E9BB9" points="249.998047 265.626831 249.998047 343.751221 343.747314 289.064148 343.747314 210.939758"></polygon>
            <polygon id="路径" fill="#91CBD7" points="304.68512 359.376099 398.434387 304.689026 492.183655 359.376099 398.434387 414.063171"></polygon>
            <polygon id="路径" fill="#7BC2CC" points="398.434387 414.063171 398.434387 492.187561 304.68512 437.500488 304.68512 359.376099"></polygon>
            <polygon id="路径" fill="#4E9BB9" points="398.434387 414.063171 398.434387 492.187561 492.183655 437.500488 492.183655 359.376099"></polygon>
            <polygon id="路径" fill="#91CBD7" points="7.81243897 359.376099 101.561707 304.689026 195.310974 359.376099 101.561707 414.063171"></polygon>
            <polygon id="路径" fill="#7BC2CC" points="101.561707 414.063171 101.561707 492.187561 7.81243897 437.500488 7.81243897 359.376099"></polygon>
            <polygon id="路径" fill="#4E9BB9" points="101.561707 414.063171 101.561707 492.187561 195.310974 437.500488 195.310974 359.376099"></polygon>
            <path d="M394.496918,202.064828 C395.707846,202.77576 397.075023,203.127319 398.434387,203.127319 C399.793752,203.127319 401.160928,202.77576 402.371856,202.064828 L496.121124,147.377755 C498.527355,145.979328 499.996094,143.401223 499.996094,140.627808 L499.996094,62.5034179 C499.996094,59.7300021 498.527355,57.1518973 496.121124,55.7534707 L402.371856,1.06639792 C399.942188,-0.355465973 396.926587,-0.355465973 394.496918,1.06639792 L300.74765,55.7534707 C298.341419,57.1518973 296.872681,59.7300021 296.872681,62.5034179 L296.872681,140.627808 C296.872681,143.401223 298.341419,145.979328 300.74765,147.377755 L310.075703,152.815212 L284.833712,167.526035 L253.935516,149.502738 C251.505848,148.080874 248.490246,148.080874 246.060578,149.502738 L215.162382,167.526035 L189.920391,152.815212 L199.248443,147.377755 C201.654675,145.979328 203.123413,143.401223 203.123413,140.627808 L203.123413,62.5034179 C203.123413,59.7300021 201.654675,57.1518973 199.248443,55.7534707 L105.499176,1.06639792 C103.069507,-0.355465973 100.053906,-0.355465973 97.6242373,1.06639792 L3.87496973,55.7534707 C1.46873853,57.1518973 0,59.7300021 0,62.5034179 L0,140.627808 C0,143.401223 1.46873853,145.979328 3.87496973,147.377755 L97.6242373,202.064828 C98.8351654,202.77576 100.202342,203.127319 101.561707,203.127319 C102.921071,203.127319 104.288248,202.77576 105.499176,202.064828 L174.404887,161.869829 L199.646878,176.580652 L152.303498,204.197623 C149.905079,205.588238 148.43634,208.166342 148.43634,210.939758 L148.43634,289.064148 C148.43634,291.837564 149.905079,294.415669 152.31131,295.814095 L161.6628,301.267178 L136.428622,315.985813 L105.491363,297.939079 C103.061695,296.517215 100.046093,296.517215 97.6164249,297.939079 L3.86715729,352.626151 C1.46873853,354.024578 0,356.602683 0,359.376099 L0,437.500488 C0,440.273904 1.46873853,442.852009 3.87496973,444.250436 L97.6242373,498.937508 C98.8351654,499.64844 100.202342,500 101.561707,500 C102.921071,500 104.288248,499.64844 105.499176,498.937508 L199.248443,444.250436 C201.654675,442.852009 203.123413,440.273904 203.123413,437.500488 L203.123413,359.376099 C203.123413,356.602683 201.654675,354.024578 199.248443,352.626151 L151.936313,325.032617 L177.170491,310.313982 L246.060578,350.501168 C247.271506,351.2121 248.638683,351.56366 249.998047,351.56366 C251.357411,351.56366 252.724588,351.2121 253.935516,350.501168 L322.841228,310.306169 L348.083218,325.016992 L300.739838,352.633964 C298.341419,354.024578 296.872681,356.602683 296.872681,359.376099 L296.872681,437.500488 C296.872681,440.273904 298.341419,442.852009 300.74765,444.250436 L394.496918,498.937508 C395.707846,499.64844 397.075023,500 398.434387,500 C399.793752,500 401.160928,499.64844 402.371856,498.937508 L496.121124,444.250436 C498.527355,442.852009 499.996094,440.273904 499.996094,437.500488 L499.996094,359.376099 C499.996094,356.602683 498.527355,354.024578 496.121124,352.626151 L402.371856,297.939079 C399.942188,296.517215 396.926587,296.517215 394.496918,297.939079 L363.598722,315.962375 L338.356732,301.251553 L347.684784,295.814095 C350.091015,294.415669 351.559753,291.837564 351.559753,289.064148 L351.559753,210.939758 C351.559753,208.166342 350.091015,205.588238 347.684784,204.189811 L300.341404,176.572839 L325.583394,161.862017 L394.496918,202.064828 Z M101.561707,16.8631495 L179.811095,62.5034179 L101.561707,108.143686 L23.3123179,62.5034179 L101.561707,16.8631495 Z M15.6248779,76.1048742 L93.7492676,121.674831 L93.7492676,181.713424 L15.6248779,136.143468 L15.6248779,76.1048742 Z M109.374146,181.713424 L109.374146,121.674831 L187.498535,76.1048742 L187.498535,136.143468 L174.404887,143.77622 L144.006687,126.065421 L136.131749,139.573128 L158.889384,152.830837 L109.374146,181.713424 Z M15.6248779,372.977555 L93.7492676,418.547511 L93.7492676,478.586105 L15.6248779,433.016148 L15.6248779,372.977555 Z M109.374146,478.586105 L109.374146,418.547511 L187.498535,372.977555 L187.498535,433.016148 L109.374146,478.586105 Z M101.561707,405.016367 L23.3123179,359.376099 L101.561707,313.73583 L179.811095,359.376099 L101.561707,405.016367 Z M312.497559,372.977555 L390.621948,418.547511 L390.621948,478.586105 L312.497559,433.016148 L312.497559,372.977555 Z M406.246826,478.586105 L406.246826,418.547511 L484.371216,372.977555 L484.371216,433.016148 L406.246826,478.586105 Z M398.434387,313.73583 L476.683776,359.376099 L398.434387,405.016367 L320.184999,359.376099 L398.434387,313.73583 Z M207.545254,274.501762 L177.162678,292.220373 L164.061218,284.579808 L164.061218,224.541215 L242.185608,270.111171 L242.185608,330.149764 L192.678182,301.267178 L215.428004,288.001656 L207.545254,274.501762 Z M307.333536,301.267178 L257.810486,330.149764 L257.810486,270.111171 L335.934876,224.541215 L335.934876,284.579808 L322.841228,292.212561 L292.443028,274.501762 L284.568089,288.009469 L307.333536,301.267178 Z M249.998047,256.580027 L171.748658,210.939758 L249.998047,165.29949 L328.247436,210.939758 L249.998047,256.580027 Z M406.246826,181.713424 L406.246826,121.674831 L484.371216,76.1048742 L484.371216,136.143468 L406.246826,181.713424 Z M398.434387,16.8631495 L476.683776,62.5034179 L398.434387,108.143686 L320.184999,62.5034179 L398.434387,16.8631495 Z M312.497559,136.143468 L312.497559,76.1048742 L390.621948,121.674831 L390.621948,181.713424 L341.098898,152.830837 L363.856532,139.573128 L355.981594,126.065421 L325.583394,143.77622 L312.497559,136.143468 Z" id="形状" fill="#3B3344"></path>
        </g>
    </g>
</svg>