<?xml version="1.0" encoding="UTF-8"?>
<svg width="500px" height="500px" viewBox="0 0 500 500" version="1.1" xmlns="http://www.w3.org/2000/svg" xmlns:xlink="http://www.w3.org/1999/xlink">
    <title>8385823_stacking_pool_farm_dollar_cryptocurrency_stablecoin</title>
    <g id="8385823_stacking_pool_farm_dollar_cryptocurrency_stablecoin" stroke="none" stroke-width="1" fill="none" fill-rule="evenodd">
        <g fill-rule="nonzero">
            <circle id="椭圆形" fill="#7BC2CC" cx="85.9609375" cy="250" r="78.125"></circle>
            <circle id="椭圆形" fill="#FFD572" cx="414.085938" cy="250" r="78.125"></circle>
            <circle id="椭圆形" fill="#ED8383" cx="414.085938" cy="218.75" r="15.625"></circle>
            <path d="M89.421875,97.6484375 C60.9375,97.6484375 33.1328125,86.4609375 12.4140625,65.7421875 C6.3125,59.640625 6.3125,49.75 12.4140625,43.640625 C18.515625,37.546875 28.40625,37.5390625 34.5078125,43.640625 C54.5703125,63.703125 83.9453125,71.2265625 111.171875,63.28125 L245.648437,24.0625 C248.5,23.234375 251.539062,23.234375 254.390625,24.0625 L388.859375,63.28125 C416.085937,71.234375 445.476562,63.703125 465.53125,43.640625 C471.632812,37.5390625 481.523437,37.5390625 487.625,43.640625 C493.726562,49.7421875 493.726562,59.6328125 487.625,65.7421875 C459.492187,93.875 418.3125,104.429688 380.101562,93.2890625 L250.023437,55.3359375 L119.929687,93.28125 C109.875,96.2109375 99.6015625,97.6484375 89.421875,97.6484375 Z" id="路径" fill="#ED8383"></path>
            <circle id="椭圆形" fill="#ED8383" cx="453.148438" cy="257.8125" r="15.625"></circle>
            <rect id="矩形" fill="#ED8383" x="226.585938" y="46.875" width="46.875" height="351.5625"></rect>
            <circle id="椭圆形" fill="#ED8383" cx="375.023438" cy="257.8125" r="15.625"></circle>
            <polygon id="路径" fill="#68607C" points="390.648438 445.3125 109.398438 445.3125 132.835938 398.4375 367.210938 398.4375"></polygon>
            <circle id="椭圆形" fill="#FFC574" cx="250.023438" cy="39.0625" r="31.25"></circle>
            <rect id="矩形" fill="#68607C" x="70.3359375" y="445.3125" width="359.375" height="46.875"></rect>
            <path d="M421.898437,164.460938 L421.898437,104.921875 C448.390625,102.351562 473.679687,90.734375 493.09375,71.265625 C497.570312,66.8359375 500.046875,60.953125 500.046875,54.6875 C500.046875,48.421875 497.578125,42.5390625 493.125,38.140625 C488.679687,33.703125 482.796875,31.2578125 476.546875,31.2578125 C476.523437,31.2578125 476.492187,31.2578125 476.46875,31.2578125 C470.242187,31.28125 464.398437,33.734375 460.046875,38.1328125 C441.953125,56.1796875 415.492187,62.9375 391.03125,55.78125 L286.453125,25.28125 C280.851562,10.546875 266.695312,0 250.023437,0 C233.351562,0 219.195312,10.546875 213.59375,25.28125 L109.007812,55.78125 C84.5390625,62.9296875 58.1015625,56.171875 40.0390625,38.1796875 C35.6484375,33.734375 29.8046875,31.28125 23.578125,31.2578125 C23.5546875,31.2578125 23.5234375,31.2578125 23.5,31.2578125 C17.25,31.2578125 11.3671875,33.703125 6.953125,38.109375 C2.46875,42.5390625 0,48.4296875 0,54.6875 C0,60.9453125 2.46875,66.8359375 6.9140625,71.21875 C26.25,90.625 51.21875,102.351562 78.1484375,104.921875 L78.1484375,164.460938 C34.4140625,168.421875 0.0234375,205.25 0.0234375,250 C0.0234375,297.382812 38.578125,335.9375 85.9609375,335.9375 C133.34375,335.9375 171.898437,297.382812 171.898437,250 C171.898437,205.25 137.507812,168.421875 93.7734375,164.460938 L93.7734375,105.320313 C103.429687,104.960938 112.960937,103.492188 122.132812,100.789063 L218.773437,72.5859375 L218.773437,390.625 L132.835937,390.625 C129.875,390.625 127.171875,392.296875 125.84375,394.945312 L104.570312,437.5 L70.3359375,437.5 C66.015625,437.5 62.5234375,441 62.5234375,445.3125 L62.5234375,492.1875 C62.5234375,496.5 66.015625,500 70.3359375,500 L429.710937,500 C434.03125,500 437.523437,496.5 437.523437,492.1875 L437.523437,445.3125 C437.523437,441 434.03125,437.5 429.710937,437.5 L395.476562,437.5 L374.195312,394.945312 C372.875,392.296875 370.171875,390.625 367.210937,390.625 L281.273437,390.625 L281.273437,72.5859375 L377.914062,100.78125 C387.273437,103.515625 396.789062,104.960938 406.273437,105.320312 L406.273437,164.460938 C362.539062,168.421875 328.148437,205.25 328.148437,250 C328.148437,297.382812 366.703125,335.9375 414.085937,335.9375 C461.46875,335.9375 500.023437,297.382812 500.023437,250 C500.023437,205.25 465.632812,168.421875 421.898437,164.460938 Z M250.023437,15.625 C262.945312,15.625 273.460937,26.140625 273.460937,39.0625 C273.460937,51.984375 262.945312,62.5 250.023437,62.5 C237.101562,62.5 226.585937,51.984375 226.585937,39.0625 C226.585937,26.140625 237.101562,15.625 250.023437,15.625 Z M156.273438,250 C156.273438,288.765625 124.734375,320.3125 85.9609375,320.3125 C47.1875,320.3125 15.6484375,288.765625 15.6484375,250 C15.6484375,211.234375 47.1875,179.6875 85.9609375,179.6875 C124.734375,179.6875 156.273438,211.234375 156.273438,250 Z M117.734375,85.78125 C108.585938,88.4765625 99.0546875,89.84375 89.3984375,89.84375 C62.3984375,89.84375 37.03125,79.3125 17.9375,60.1484375 C16.453125,58.6796875 15.625,56.7421875 15.625,54.6875 C15.625,52.6328125 16.4453125,50.6953125 17.96875,49.1953125 C19.4609375,47.703125 21.421875,46.8828125 23.5,46.8828125 C23.5078125,46.8828125 23.515625,46.8828125 23.5234375,46.8828125 C25.5625,46.890625 27.4765625,47.6953125 28.9609375,49.203125 C51.109375,71.2578125 83.4609375,79.53125 113.390625,70.78125 L211.28125,42.234375 C211.726562,47.625 213.234375,52.6640625 215.648438,57.21875 L117.734375,85.78125 Z M421.898437,484.375 L78.1484375,484.375 L78.1484375,453.125 L421.898437,453.125 L421.898437,484.375 Z M378.007812,437.5 L122.039062,437.5 L137.664062,406.25 L362.382812,406.25 L378.007812,437.5 Z M234.398437,390.625 L234.398437,74.8125 C239.195312,76.921875 244.460937,78.125 250.023437,78.125 C255.585937,78.125 260.851562,76.921875 265.648437,74.8125 L265.648437,390.625 L234.398437,390.625 Z M284.398437,57.21875 C286.8125,52.6640625 288.320312,47.625 288.765625,42.234375 L386.65625,70.78125 C416.578125,79.5234375 448.9375,71.265625 471.125,49.15625 C472.578125,47.6875 474.648437,46.8828125 476.539062,46.875 C478.617187,46.875 480.585937,47.6953125 482.101562,49.21875 C483.585937,50.6875 484.414062,52.625 484.414062,54.6796875 C484.414062,56.734375 483.59375,58.671875 482.0625,60.1796875 C455.96875,86.34375 417.734375,96.140625 382.289062,85.7734375 L284.398437,57.21875 Z M367.210937,257.8125 C367.210937,253.507812 370.710937,250 375.023437,250 C379.335937,250 382.835937,253.507812 382.835937,257.8125 C382.835937,262.117188 379.335937,265.625 375.023437,265.625 C370.710937,265.625 367.210937,262.117188 367.210937,257.8125 Z M406.273437,218.75 C406.273437,214.445312 409.773437,210.9375 414.085937,210.9375 C418.398437,210.9375 421.898437,214.445312 421.898437,218.75 C421.898437,223.054688 418.398437,226.5625 414.085937,226.5625 C409.773437,226.5625 406.273437,223.054688 406.273437,218.75 Z M453.148437,308.421875 L453.148437,300.109375 L458.671875,294.585938 C460.140625,293.125 460.960937,291.132812 460.960937,289.0625 L460.960937,279.8125 C470.03125,276.578125 476.585937,267.984375 476.585937,257.8125 C476.585937,244.890625 466.070312,234.375 453.148437,234.375 C440.226562,234.375 429.710937,244.890625 429.710937,257.8125 C429.710937,267.984375 436.265625,276.578125 445.335937,279.8125 L445.335937,285.828125 L439.8125,291.351562 C438.34375,292.8125 437.523437,294.804688 437.523437,296.875 L437.523437,316.210938 C432.539062,317.984375 427.328125,319.25 421.898437,319.851562 L421.898437,240.75 C430.96875,237.515625 437.523437,228.921875 437.523437,218.75 C437.523437,205.828125 427.007812,195.3125 414.085937,195.3125 C401.164062,195.3125 390.648437,205.828125 390.648437,218.75 C390.648437,228.921875 397.203125,237.515625 406.273437,240.75 L406.273437,319.851562 C400.84375,319.25 395.632812,317.976562 390.648437,316.210938 L390.648437,296.875 C390.648437,294.804688 389.828125,292.8125 388.359375,291.351562 L382.835937,285.828125 L382.835937,279.8125 C391.90625,276.578125 398.460937,267.984375 398.460937,257.8125 C398.460937,244.890625 387.945312,234.375 375.023437,234.375 C362.101562,234.375 351.585937,244.890625 351.585937,257.8125 C351.585937,267.984375 358.140625,276.578125 367.210937,279.8125 L367.210937,289.0625 C367.210937,291.132812 368.03125,293.125 369.5,294.585938 L375.023437,300.109375 L375.023437,308.421875 C356.195312,295.789062 343.773437,274.320312 343.773437,250 C343.773437,211.234375 375.3125,179.6875 414.085937,179.6875 C452.859375,179.6875 484.398437,211.234375 484.398437,250 C484.398437,274.320312 471.976562,295.796875 453.148437,308.421875 Z M445.335937,257.8125 C445.335937,253.507812 448.835937,250 453.148437,250 C457.460937,250 460.960937,253.507812 460.960937,257.8125 C460.960937,262.117188 457.460937,265.625 453.148437,265.625 C448.835937,265.625 445.335937,262.117188 445.335937,257.8125 Z" id="形状" fill="#3B3344"></path>
            <path d="M78.1484375,195.3125 L78.1484375,203.125 C65.2265625,203.125 54.7109375,213.640625 54.7109375,226.5625 L54.7109375,234.375 C54.7109375,247.296875 65.2265625,257.8125 78.1484375,257.8125 L93.7734375,257.8125 C98.0859375,257.8125 101.585938,261.320312 101.585938,265.625 L101.585938,273.4375 C101.585938,277.742188 98.0859375,281.25 93.7734375,281.25 L78.1484375,281.25 C73.8359375,281.25 70.3359375,277.742188 70.3359375,273.4375 L54.7109375,273.4375 C54.7109375,286.359375 65.2265625,296.875 78.1484375,296.875 L78.1484375,304.6875 L93.7734375,304.6875 L93.7734375,296.875 C106.695312,296.875 117.210938,286.359375 117.210938,273.4375 L117.210938,265.625 C117.210938,252.703125 106.695312,242.1875 93.7734375,242.1875 L78.1484375,242.1875 C73.8359375,242.1875 70.3359375,238.679688 70.3359375,234.375 L70.3359375,226.5625 C70.3359375,222.257812 73.8359375,218.75 78.1484375,218.75 L93.7734375,218.75 C98.0859375,218.75 101.585938,222.257812 101.585938,226.5625 L117.210938,226.5625 C117.210938,213.640625 106.695312,203.125 93.7734375,203.125 L93.7734375,195.3125 L78.1484375,195.3125 Z" id="路径" fill="#3B3344"></path>
        </g>
    </g>
</svg>