<?xml version="1.0" encoding="UTF-8"?>
<svg width="500px" height="500px" viewBox="0 0 500 500" version="1.1" xmlns="http://www.w3.org/2000/svg" xmlns:xlink="http://www.w3.org/1999/xlink">
    <title>8385839_exchange_blockchain_finance_centralized_cefi</title>
    <g id="8385839_exchange_blockchain_finance_centralized_cefi" stroke="none" stroke-width="1" fill="none" fill-rule="evenodd">
        <g fill-rule="nonzero">
            <circle id="椭圆形" fill="#FFD572" cx="250" cy="31.25" r="23.4375"></circle>
            <circle id="椭圆形" fill="#FFD572" cx="250" cy="468.75" r="23.4375"></circle>
            <circle id="椭圆形" fill="#FFD572" cx="468.75" cy="250" r="23.4375"></circle>
            <circle id="椭圆形" fill="#FFD572" cx="31.25" cy="250" r="23.4375"></circle>
            <circle id="椭圆形" fill="#FFD572" cx="404.679688" cy="95.3203125" r="23.4375"></circle>
            <circle id="椭圆形" fill="#FFD572" cx="95.3203125" cy="404.679688" r="23.4375"></circle>
            <circle id="椭圆形" fill="#FFD572" cx="404.679688" cy="404.679688" r="23.4375"></circle>
            <circle id="椭圆形" fill="#FFD572" cx="95.3203125" cy="95.3203125" r="23.4375"></circle>
            <path d="M359.375,250 C359.375,296.640625 330.15625,336.40625 289.0625,352.109375 C284.0625,354.0625 278.828125,355.703125 273.4375,356.875 C268.359375,357.96875 263.125,358.75 257.8125,359.0625 C255.234375,359.296875 252.65625,359.375 250,359.375 C247.34375,359.375 244.765625,359.296875 242.1875,359.0625 C236.875,358.75 231.640625,357.96875 226.5625,356.875 L226.171875,356.796875 C220.9375,355.625 215.859375,354.0625 210.9375,352.109375 C169.84375,336.40625 140.625,296.640625 140.625,250 C140.625,189.609375 189.609375,140.625 250,140.625 C310.390625,140.625 359.375,189.609375 359.375,250 Z" id="路径" fill="#FFD572"></path>
            <circle id="椭圆形" fill="#FFC574" cx="250" cy="250" r="85.9375"></circle>
            <circle id="椭圆形" fill="#ED8383" cx="250" cy="210.9375" r="15.625"></circle>
            <circle id="椭圆形" fill="#ED8383" cx="304.6875" cy="234.375" r="15.625"></circle>
            <circle id="椭圆形" fill="#ED8383" cx="195.3125" cy="234.375" r="15.625"></circle>
            <path d="M250,132.8125 C185.382812,132.8125 132.8125,185.382812 132.8125,250 C132.8125,314.617188 185.382812,367.1875 250,367.1875 C314.617188,367.1875 367.1875,314.617188 367.1875,250 C367.1875,185.382812 314.617188,132.8125 250,132.8125 Z M242.1875,210.9375 C242.1875,206.625 245.6875,203.125 250,203.125 C254.3125,203.125 257.8125,206.625 257.8125,210.9375 C257.8125,215.25 254.3125,218.75 250,218.75 C245.6875,218.75 242.1875,215.25 242.1875,210.9375 Z M289.0625,343.726562 L289.0625,300.109375 L310.210938,278.960938 C311.679688,277.5 312.5,275.515625 312.5,273.4375 L312.5,256.375 C321.570312,253.140625 328.125,244.546875 328.125,234.375 C328.125,221.453125 317.609375,210.9375 304.6875,210.9375 C291.765625,210.9375 281.25,221.453125 281.25,234.375 C281.25,244.546875 287.804688,253.140625 296.875,256.375 L296.875,270.203125 L275.726562,291.351562 C274.257812,292.8125 273.4375,294.796875 273.4375,296.875 L273.4375,348.726562 C268.359375,349.929688 263.148438,350.757812 257.8125,351.171875 L257.8125,232.9375 C266.882812,229.703125 273.4375,221.109375 273.4375,210.9375 C273.4375,198.015625 262.921875,187.5 250,187.5 C237.078125,187.5 226.5625,198.015625 226.5625,210.9375 C226.5625,221.109375 233.117188,229.703125 242.1875,232.9375 L242.1875,351.171875 C236.851562,350.765625 231.640625,349.9375 226.5625,348.726562 L226.5625,296.875 C226.5625,294.796875 225.742188,292.8125 224.273438,291.351562 L203.125,270.203125 L203.125,256.375 C212.195312,253.140625 218.75,244.546875 218.75,234.375 C218.75,221.453125 208.234375,210.9375 195.3125,210.9375 C182.390625,210.9375 171.875,221.453125 171.875,234.375 C171.875,244.546875 178.429688,253.140625 187.5,256.375 L187.5,273.4375 C187.5,275.515625 188.320312,277.5 189.789062,278.960938 L210.9375,300.109375 L210.9375,343.726562 C174.273438,328.390625 148.4375,292.164062 148.4375,250 C148.4375,194 194,148.4375 250,148.4375 C306,148.4375 351.5625,194 351.5625,250 C351.5625,292.164062 325.726562,328.390625 289.0625,343.726562 Z M296.875,234.375 C296.875,230.0625 300.375,226.5625 304.6875,226.5625 C309,226.5625 312.5,230.0625 312.5,234.375 C312.5,238.6875 309,242.1875 304.6875,242.1875 C300.375,242.1875 296.875,238.6875 296.875,234.375 Z M187.5,234.375 C187.5,230.0625 191,226.5625 195.3125,226.5625 C199.625,226.5625 203.125,230.0625 203.125,234.375 C203.125,238.6875 199.625,242.1875 195.3125,242.1875 C191,242.1875 187.5,238.6875 187.5,234.375 Z" id="形状" fill="#3B3344"></path>
            <path d="M468.75,218.75 C454.226562,218.75 442.101562,228.742188 438.609375,242.1875 L393.859375,242.1875 L403.960938,232.085938 L392.914062,221.039062 L369.476562,244.476562 C367.953125,246 367.1875,248 367.1875,250 C367.1875,252 367.953125,254 369.476562,255.523438 L392.914062,278.960938 L403.960938,267.914062 L393.859375,257.8125 L438.609375,257.8125 C442.101563,271.257812 454.226563,281.25 468.75,281.25 C485.984375,281.25 500,267.234375 500,250 C500,232.765625 485.984375,218.75 468.75,218.75 Z M468.75,265.625 C460.132812,265.625 453.125,258.617188 453.125,250 C453.125,241.382812 460.132812,234.375 468.75,234.375 C477.367188,234.375 484.375,241.382812 484.375,250 C484.375,258.617188 477.367188,265.625 468.75,265.625 Z" id="形状" fill="#3B3344"></path>
            <path d="M388.953125,377.90625 L357.242188,346.195312 L371.53125,346.195312 L371.53125,330.570312 L338.382812,330.570312 C334.0625,330.570312 330.570312,334.0625 330.570312,338.382812 L330.570312,371.53125 L346.195312,371.53125 L346.195312,357.242188 L377.835938,388.882812 C375.03125,393.632812 373.421875,399.007812 373.421875,404.671875 C373.421875,413.023438 376.671875,420.867188 382.578125,426.765625 C388.484375,432.671875 396.328125,435.921875 404.671875,435.921875 C413.023438,435.921875 420.867188,432.671875 426.765625,426.765625 C432.671875,420.867188 435.921875,413.023438 435.921875,404.671875 C435.921875,396.328125 432.671875,388.484375 426.765625,382.578125 C416.882812,372.679688 400.859375,371.1875 388.953125,377.90625 Z M415.726562,415.726562 C409.820312,421.632812 399.539062,421.632812 393.632812,415.726562 C390.679688,412.773438 389.054688,408.851562 389.054688,404.679688 C389.054688,400.507812 390.679688,396.585938 393.632812,393.632812 C396.585938,390.679688 400.507812,389.054688 404.679688,389.054688 C408.851562,389.054688 412.773438,390.679688 415.726562,393.632812 C418.679688,396.585938 420.304688,400.507812 420.304688,404.679688 C420.304688,408.851562 418.679688,412.773438 415.726562,415.726562 Z" id="形状" fill="#3B3344"></path>
            <path d="M95.3203125,126.570312 C100.984375,126.570312 106.359375,124.960937 111.109375,122.15625 L142.75,153.796875 L128.460938,153.796875 L128.460938,169.421875 L161.609375,169.421875 C165.929688,169.421875 169.421875,165.929688 169.421875,161.609375 L169.421875,128.460937 L153.796875,128.460937 L153.796875,142.75 L122.15625,111.109375 C124.960938,106.359375 126.570312,100.984375 126.570312,95.3203125 C126.570312,86.96875 123.320312,79.125 117.414062,73.2265625 C105.59375,61.4140625 85.015625,61.4140625 73.2265625,73.2265625 C67.3203125,79.125 64.0703125,86.96875 64.0703125,95.3203125 C64.0703125,103.664062 67.3203125,111.507812 73.2265625,117.414062 C79.125,123.320312 86.96875,126.570312 95.3203125,126.570312 Z M84.2734375,84.2734375 C87.2265625,81.3203125 91.1484375,79.6953125 95.3203125,79.6953125 C99.4921875,79.6953125 103.414062,81.3203125 106.367188,84.2734375 C109.320312,87.2265625 110.945313,91.1484375 110.945313,95.3203125 C110.945313,99.4921875 109.320312,103.414062 106.367188,106.367188 C100.460938,112.273438 90.1796875,112.273438 84.2734375,106.367188 C81.3203125,103.414062 79.6953125,99.4921875 79.6953125,95.3203125 C79.6953125,91.1484375 81.3203125,87.2265625 84.2734375,84.2734375 Z" id="形状" fill="#3B3344"></path>
            <path d="M278.960938,107.085938 L267.914062,96.0390625 L257.8125,106.140625 L257.8125,61.390625 C271.257812,57.8984375 281.25,45.7734375 281.25,31.25 C281.25,14.015625 267.234375,0 250,0 C232.765625,0 218.75,14.015625 218.75,31.25 C218.75,45.7734375 228.742188,57.8984375 242.1875,61.390625 L242.1875,106.140625 L232.085938,96.0390625 L221.039062,107.085938 L244.476562,130.523438 C246,132.046875 248,132.8125 250,132.8125 C252,132.8125 254,132.046875 255.523438,130.523438 L278.960938,107.085938 Z M234.375,31.25 C234.375,22.6328125 241.382812,15.625 250,15.625 C258.617188,15.625 265.625,22.6328125 265.625,31.25 C265.625,39.8671875 258.617188,46.875 250,46.875 C241.382812,46.875 234.375,39.8671875 234.375,31.25 Z" id="形状" fill="#3B3344"></path>
            <path d="M221.039062,392.914062 L232.085938,403.960938 L242.1875,393.859375 L242.1875,438.609375 C228.742188,442.101563 218.75,454.226563 218.75,468.75 C218.75,485.984375 232.765625,500 250,500 C267.234375,500 281.25,485.984375 281.25,468.75 C281.25,454.226562 271.257812,442.101562 257.8125,438.609375 L257.8125,393.859375 L267.914062,403.960938 L278.960938,392.914062 L255.523438,369.476562 C254,367.953125 252,367.1875 250,367.1875 C248,367.1875 246,367.953125 244.476562,369.476562 L221.039062,392.914062 Z M265.625,468.75 C265.625,477.367188 258.617188,484.375 250,484.375 C241.382812,484.375 234.375,477.367188 234.375,468.75 C234.375,460.132812 241.382812,453.125 250,453.125 C258.617188,453.125 265.625,460.132812 265.625,468.75 Z" id="形状" fill="#3B3344"></path>
            <path d="M107.085938,221.039062 L96.0390625,232.085938 L106.140625,242.1875 L61.390625,242.1875 C57.8984375,228.742188 45.7734375,218.75 31.25,218.75 C14.015625,218.75 0,232.765625 0,250 C0,267.234375 14.015625,281.25 31.25,281.25 C45.7734375,281.25 57.8984375,271.257812 61.390625,257.8125 L106.140625,257.8125 L96.0390625,267.914062 L107.085938,278.960938 L130.523438,255.523438 C132.046875,254 132.8125,252 132.8125,250 C132.8125,248 132.046875,246 130.523438,244.476562 L107.085938,221.039062 Z M31.25,265.625 C22.6328125,265.625 15.625,258.617188 15.625,250 C15.625,241.382812 22.6328125,234.375 31.25,234.375 C39.8671875,234.375 46.875,241.382812 46.875,250 C46.875,258.617188 39.8671875,265.625 31.25,265.625 Z" id="形状" fill="#3B3344"></path>
            <path d="M338.382813,169.429688 L371.53125,169.429688 L371.53125,153.804688 L357.242188,153.804688 L388.882812,122.164062 C393.632812,124.96875 399.007812,126.578125 404.671875,126.578125 C413.023438,126.578125 420.867188,123.328125 426.765625,117.421875 C432.671875,111.515625 435.921875,103.671875 435.921875,95.328125 C435.921875,86.9765625 432.671875,79.1328125 426.765625,73.234375 C414.976563,61.421875 394.390625,61.421875 382.578125,73.234375 C376.671875,79.1328125 373.421875,86.9765625 373.421875,95.328125 C373.421875,100.992188 375.03125,106.367188 377.835938,111.117188 L346.195313,142.757813 L346.195313,128.46875 L330.570313,128.46875 L330.570313,161.617188 C330.570313,165.929688 334.070313,169.429688 338.382813,169.429688 Z M393.632812,84.2734375 C396.585938,81.3203125 400.507813,79.6953125 404.679688,79.6953125 C408.851562,79.6953125 412.773438,81.3203125 415.726563,84.2734375 C418.679688,87.2265625 420.304688,91.1484375 420.304688,95.3203125 C420.304688,99.4921875 418.679688,103.414062 415.726563,106.367188 C409.820313,112.273438 399.539062,112.273438 393.632812,106.367188 C390.679688,103.414062 389.054688,99.4921875 389.054688,95.3203125 C389.054688,91.1484375 390.679688,87.2265625 393.632812,84.2734375 Z" id="形状" fill="#3B3344"></path>
            <path d="M161.617188,330.570312 L128.46875,330.570312 L128.46875,346.195312 L142.757813,346.195312 L111.046875,377.90625 C99.1484375,371.1875 83.1171875,372.679688 73.2265625,382.578125 C67.3203125,388.484375 64.0703125,396.328125 64.0703125,404.671875 C64.0703125,413.023438 67.3203125,420.867188 73.2265625,426.765625 C79.125,432.671875 86.96875,435.921875 95.3203125,435.921875 C103.664062,435.921875 111.507812,432.671875 117.414062,426.765625 C123.320312,420.867188 126.570312,413.023438 126.570312,404.671875 C126.570312,399.007812 124.960938,393.632812 122.15625,388.882812 L153.796875,357.242188 L153.796875,371.53125 L169.421888,371.53125 L169.421888,338.382812 C169.429688,334.070312 165.929688,330.570312 161.617188,330.570312 Z M106.367188,415.726562 C100.460938,421.632812 90.1796875,421.632812 84.2734375,415.726562 C81.3203125,412.773438 79.6953125,408.851562 79.6953125,404.679688 C79.6953125,400.507812 81.3203125,396.585938 84.2734375,393.632812 C87.2265625,390.679688 91.1484375,389.054688 95.3203125,389.054688 C99.4921875,389.054688 103.414062,390.679688 106.367188,393.632812 C109.320312,396.585938 110.945312,400.507812 110.945312,404.679688 C110.945312,408.851562 109.320312,412.773438 106.367188,415.726562 Z" id="形状" fill="#3B3344"></path>
        </g>
    </g>
</svg>